<svg xmlns="http://www.w3.org/2000/svg" width="120" height="120" viewBox="0 0 120 120"><rect width="100%" height="100%" fill="#DDDDDD"/><path fill="#999999" d="M27.67 61.145q.12 0 .22.1l.58.63q-.48.6-1.19.92-.71.32-1.7.32-.88 0-1.59-.3-.71-.31-1.21-.85-.5-.53-.76-1.28-.27-.75-.27-1.64 0-.89.28-1.64.29-.74.81-1.28t1.24-.84q.72-.3 1.6-.3.86 0 1.54.29.67.28 1.15.74l-.5.69q-.04.07-.11.12-.07.05-.19.05-.08 0-.17-.05-.09-.05-.2-.12-.1-.07-.24-.15-.13-.08-.32-.15-.18-.07-.42-.11-.24-.05-.55-.05-.53 0-.98.19-.44.19-.76.55-.32.36-.49.88-.18.52-.18 1.18 0 .67.19 1.2.19.52.52.88.32.35.76.54.44.19.95.19.3 0 .54-.03.25-.03.45-.1.21-.08.39-.19.19-.11.37-.28l.12-.08q.06-.03.12-.03Zm4.58.42v-.95q-.58.03-.99.1-.4.08-.64.19-.24.12-.35.27-.1.16-.1.34 0 .35.21.51.21.15.55.15.42 0 .73-.15.3-.15.59-.46Zm-2.87-2.96-.24-.44q.97-.89 2.34-.89.5 0 .89.16.39.17.66.46.27.28.41.69.14.4.14.88v3.56h-.62q-.19 0-.29-.06-.11-.06-.17-.23l-.12-.41q-.21.19-.42.34-.2.15-.42.24-.22.1-.47.16-.25.05-.55.05-.36 0-.66-.1-.31-.09-.53-.29-.22-.19-.34-.48-.12-.28-.12-.66 0-.22.07-.43t.24-.4q.16-.19.42-.36.26-.17.63-.3.38-.13.88-.21.5-.08 1.14-.09v-.33q0-.57-.24-.84t-.7-.27q-.33 0-.54.07-.22.08-.39.18l-.3.17q-.13.08-.3.08-.14 0-.24-.08-.1-.07-.16-.17Zm7.36 4.51q-.74 0-1.13-.42-.4-.41-.4-1.14v-3.16h-.57q-.11 0-.19-.07t-.08-.21v-.54l.91-.15.28-1.54q.03-.11.11-.17.08-.06.2-.06h.7v1.78h1.51v.96h-1.51v3.06q0 .27.13.41.13.15.36.15.12 0 .21-.03.08-.03.15-.06.06-.03.11-.06t.1-.03q.06 0 .1.03.03.03.08.09l.41.66q-.3.25-.69.37-.38.13-.79.13Zm3.28-3.56h2.56q0-.26-.07-.5-.08-.23-.22-.41-.15-.17-.38-.28-.23-.1-.53-.1-.59 0-.93.34-.34.33-.43.95Zm3.46.82h-3.49q.04.43.16.75t.32.52q.19.21.47.31.27.1.6.1.33 0 .57-.07.24-.08.41-.18.18-.09.32-.17.13-.07.26-.07.17 0 .25.12l.39.5q-.22.26-.5.44t-.59.29q-.3.1-.62.15-.32.04-.61.04-.59 0-1.1-.19-.5-.2-.88-.58-.37-.38-.59-.95-.21-.56-.21-1.3 0-.58.19-1.09.18-.51.53-.88.35-.38.85-.6.51-.22 1.14-.22.53 0 .99.17.45.17.77.5.33.32.51.8.18.48.18 1.09 0 .3-.06.41-.07.11-.26.11Zm3.4-.31q.26 0 .44-.07.19-.07.31-.19.13-.12.19-.29.06-.17.06-.37 0-.42-.25-.67-.25-.24-.75-.24t-.75.24q-.25.25-.25.67 0 .2.07.37.06.17.18.29.13.12.32.19t.43.07Zm1.54 3.21q0-.16-.1-.27-.1-.1-.27-.16t-.4-.08q-.23-.03-.48-.05l-.53-.02q-.27-.01-.53-.04-.23.12-.37.29-.14.17-.14.4 0 .15.08.28.07.13.23.22.17.09.42.15.26.05.64.05t.65-.06q.28-.06.45-.16.18-.1.27-.24.08-.14.08-.31Zm-.27-5.7h1.62v.51q0 .24-.29.29l-.51.1q.12.29.12.63 0 .42-.17.76t-.46.58q-.3.23-.7.36-.41.13-.88.13-.16 0-.32-.02-.15-.01-.3-.04-.26.16-.26.36 0 .17.15.25.16.08.42.11t.59.04q.33.01.68.04.34.02.67.09.33.07.59.22.26.15.42.4.15.26.15.66 0 .38-.18.73-.19.35-.54.63-.34.27-.85.44-.51.17-1.16.17-.64 0-1.11-.13-.48-.12-.79-.33-.31-.2-.47-.47-.15-.27-.15-.57 0-.39.24-.66.24-.26.66-.42-.23-.12-.36-.31-.13-.19-.13-.51 0-.12.04-.26.05-.13.14-.27.09-.13.23-.25.14-.11.32-.21-.43-.23-.67-.61-.24-.39-.24-.91 0-.41.16-.75.17-.34.47-.58.3-.24.71-.37.41-.12.89-.12.37 0 .69.07.31.08.58.22Zm4.98-.28q.62 0 1.14.2.51.21.88.58.36.37.56.91.2.54.2 1.21 0 .67-.2 1.21-.2.54-.56.92-.37.38-.88.58-.52.2-1.14.2-.64 0-1.15-.2-.52-.2-.89-.58-.36-.38-.56-.92-.2-.54-.2-1.21 0-.67.2-1.21.2-.54.56-.91.37-.37.89-.58.51-.2 1.15-.2Zm0 4.77q.7 0 1.04-.48.34-.47.34-1.38 0-.91-.34-1.39-.34-.48-1.04-.48-.72 0-1.06.48-.35.48-.35 1.39 0 .91.35 1.38.34.48 1.06.48Zm5.02-4.34.08.64q.26-.51.63-.8.36-.29.86-.29.39 0 .62.17l-.09 1.02q-.02.1-.08.14-.05.04-.14.04-.08 0-.24-.03-.16-.02-.32-.02-.22 0-.4.06-.17.07-.31.19-.14.13-.25.3-.11.18-.2.4v3.48h-1.36v-5.64h.8q.21 0 .29.07.08.08.11.27Zm6.94-.34h1.09l-3.08 7.19q-.06.14-.15.22-.1.07-.3.07h-1.01l1.06-2.26-2.29-5.22h1.2q.16 0 .25.07.09.08.13.18l1.2 2.93q.06.14.1.29.04.15.08.31.05-.16.1-.31t.11-.3l1.13-2.92q.05-.11.15-.18.1-.07.23-.07Zm6.14-2.31v7.95h-1.49v-7.95h1.49Zm2.92 7.95h-1.36v-5.64h.83q.26 0 .35.24l.08.42q.15-.16.31-.3.17-.14.35-.24.19-.1.4-.15.21-.06.46-.06.54 0 .88.29.34.29.51.77.14-.29.33-.49.2-.2.44-.32.23-.13.5-.19t.54-.06q.46 0 .83.14.36.15.61.42.25.28.38.67.12.4.12.91v3.59h-1.35v-3.59q0-.54-.24-.81t-.69-.27q-.21 0-.39.07-.18.07-.32.2-.13.14-.21.34-.07.2-.07.47v3.59h-1.37v-3.59q0-.57-.23-.83-.22-.25-.66-.25-.3 0-.56.14-.25.15-.47.4v4.13Zm10.83-1.46v-.95q-.59.03-.99.1-.4.08-.64.19-.24.12-.35.27-.1.16-.1.34 0 .35.21.51.21.15.55.15.42 0 .73-.15.3-.15.59-.46Zm-2.87-2.96-.24-.44q.97-.89 2.34-.89.5 0 .89.16.39.17.66.46.27.28.41.69.14.4.14.88v3.56h-.62q-.19 0-.3-.06-.1-.06-.16-.23l-.12-.41q-.22.19-.42.34-.2.15-.42.24-.22.1-.47.16-.25.05-.56.05-.35 0-.66-.1-.3-.09-.52-.29-.22-.19-.34-.48-.12-.28-.12-.66 0-.22.07-.43t.24-.4q.16-.19.42-.36.25-.17.63-.3.38-.13.88-.21.5-.08 1.14-.09v-.33q0-.57-.24-.84t-.7-.27q-.33 0-.55.07-.21.08-.38.18l-.3.17q-.13.08-.3.08-.14 0-.24-.08-.1-.07-.16-.17Zm7.54 1.46q.25 0 .44-.07.18-.07.31-.19.12-.12.18-.29.07-.17.07-.37 0-.42-.25-.67-.25-.24-.75-.24t-.75.24q-.25.25-.25.67 0 .2.06.37.06.17.19.29.12.12.31.19t.44.07Zm1.53 3.21q0-.16-.1-.27-.1-.1-.27-.16t-.4-.08q-.22-.03-.48-.05l-.53-.02q-.27-.01-.53-.04-.22.12-.37.29-.14.17-.14.4 0 .15.08.28.07.13.24.22.16.09.42.15.25.05.63.05t.65-.06q.28-.06.46-.16t.26-.24q.08-.14.08-.31Zm-.27-5.7h1.62v.51q0 .24-.29.29l-.5.1q.11.29.11.63 0 .42-.17.76-.16.34-.46.58-.3.23-.7.36-.41.13-.87.13-.17 0-.32-.02-.16-.01-.31-.04-.26.16-.26.36 0 .17.16.25.15.08.41.11t.59.04q.33.01.68.04.34.02.67.09.33.07.59.22.26.15.42.4.15.26.15.66 0 .38-.18.73t-.53.63q-.35.27-.86.44-.51.17-1.16.17-.64 0-1.11-.13-.47-.12-.79-.33-.31-.2-.46-.47-.16-.27-.16-.57 0-.39.24-.66.24-.26.66-.42-.23-.12-.36-.31-.13-.19-.13-.51 0-.12.05-.26.04-.13.13-.27.09-.13.23-.25.14-.11.33-.21-.43-.23-.68-.61-.24-.39-.24-.91 0-.41.17-.75.16-.34.46-.58.3-.24.71-.37.41-.12.9-.12.36 0 .68.07.32.08.58.22Zm3.55 1.98h2.57q0-.26-.08-.5-.07-.23-.22-.41-.15-.17-.38-.28-.22-.1-.53-.1-.59 0-.92.34-.34.33-.44.95Zm3.47.82h-3.49q.03.43.15.75t.32.52q.2.21.47.31.27.1.6.1.33 0 .57-.07.24-.08.42-.18.18-.09.31-.17.14-.07.26-.07.17 0 .26.12l.39.5q-.23.26-.51.44t-.58.29q-.31.1-.63.15-.31.04-.61.04-.59 0-1.09-.19-.51-.2-.88-.58-.38-.38-.59-.95-.22-.56-.22-1.3 0-.58.19-1.09.19-.51.54-.88.35-.38.85-.6.5-.22 1.14-.22.53 0 .98.17.45.17.78.5.32.32.5.8.19.48.19 1.09 0 .3-.07.41-.06.11-.25.11Z"/></svg>